<svg width="25" height="26" viewBox="0 0 25 26" fill="none" xmlns="http://www.w3.org/2000/svg">
<path d="M22.9906 0.259766H2.00938C0.9 0.259766 0 1.15977 0 2.26914V23.2504C0 24.3598 0.9 25.2598 2.00938 25.2598H22.9906C24.1 25.2598 25 24.3598 25 23.2504V2.26914C25 1.15977 24.1 0.259766 22.9906 0.259766ZM22.9906 23.2598C8.99688 23.2566 2 23.2535 2 23.2504C2.00313 9.25664 2.00625 2.25977 2.00938 2.25977C16.0031 2.26289 23 2.26602 23 2.26914C22.9969 16.2629 22.9937 23.2598 22.9906 23.2598ZM3.70625 9.63164H7.41562V21.5629H3.70625V9.63164ZM5.5625 8.00039C6.74688 8.00039 7.7125 7.03789 7.7125 5.85039C7.7125 5.56805 7.65689 5.28847 7.54884 5.02762C7.44079 4.76677 7.28243 4.52976 7.08278 4.33011C6.88313 4.13047 6.64612 3.9721 6.38527 3.86405C6.12442 3.756 5.84484 3.70039 5.5625 3.70039C5.28016 3.70039 5.00058 3.756 4.73973 3.86405C4.47888 3.9721 4.24187 4.13047 4.04222 4.33011C3.84257 4.52976 3.68421 4.76677 3.57616 5.02762C3.46811 5.28847 3.4125 5.56805 3.4125 5.85039C3.40938 7.03789 4.37188 8.00039 5.5625 8.00039ZM13.4469 15.6598C13.4469 14.1035 13.7438 12.5973 15.6719 12.5973C17.5719 12.5973 17.6 14.3754 17.6 15.7598V21.5629H21.3063V15.0191C21.3063 11.8066 20.6125 9.33477 16.8594 9.33477C15.0563 9.33477 13.8469 10.3254 13.35 11.2629H13.3V9.63164H9.74063V21.5629H13.4469V15.6598Z" fill="white" fill-opacity="0.9"/>
</svg>
