<svg width="25" height="25" viewBox="0 0 25 25" fill="none" xmlns="http://www.w3.org/2000/svg">
<path d="M22.9004 0H2.09961C1.51367 0 1.01725 0.316764 0.610352 0.950292C0.203451 1.58382 0 2.31481 0 3.14327V21.8567C0 22.6852 0.203451 23.4162 0.610352 24.0497C1.01725 24.6832 1.51367 25 2.09961 25H22.9004C23.4863 25 23.9827 24.6832 24.3896 24.0497C24.7965 23.4162 25 22.6852 25 21.8567V3.14327C25 2.31481 24.7965 1.58382 24.3896 0.950292C23.9827 0.316764 23.4863 0 22.9004 0ZM20.9473 3.14327L12.5 10.5994L4.05273 3.14327H20.9473ZM2.09961 21.8567V5.04386L11.9629 13.8889C12.028 13.9864 12.207 14.0351 12.5 14.0351C12.793 14.0351 12.972 13.9864 13.0371 13.8889L22.9004 5.04386V21.8567H2.09961Z" fill="white"/>
</svg>
